<mxfile host="app.diagrams.net" modified="2022-03-29T07:14:17.173Z" agent="5.0 (Macintosh; Intel Mac OS X 10_15_7) AppleWebKit/537.36 (KHTML, like Gecko) Chrome/99.0.4844.83 Safari/537.36" etag="v0baeL1GXpW5VaDbzimC" version="16.5.6" type="github">
  <diagram id="DXfV26Vn87x0zs_EIKbh" name="Page-1">
    <mxGraphModel dx="1773" dy="614" grid="1" gridSize="10" guides="1" tooltips="1" connect="1" arrows="1" fold="1" page="1" pageScale="1" pageWidth="827" pageHeight="1169" math="0" shadow="0">
      <root>
        <mxCell id="0" />
        <mxCell id="1" parent="0" />
        <mxCell id="CVYdMX1Olc9wnZOOx5qh-6" value="" style="edgeStyle=orthogonalEdgeStyle;rounded=0;orthogonalLoop=1;jettySize=auto;html=1;" edge="1" parent="1" source="CVYdMX1Olc9wnZOOx5qh-1" target="CVYdMX1Olc9wnZOOx5qh-5">
          <mxGeometry relative="1" as="geometry" />
        </mxCell>
        <mxCell id="CVYdMX1Olc9wnZOOx5qh-9" value="packet" style="edgeLabel;html=1;align=center;verticalAlign=middle;resizable=0;points=[];" vertex="1" connectable="0" parent="CVYdMX1Olc9wnZOOx5qh-6">
          <mxGeometry x="0.275" relative="1" as="geometry">
            <mxPoint as="offset" />
          </mxGeometry>
        </mxCell>
        <mxCell id="CVYdMX1Olc9wnZOOx5qh-8" value="" style="edgeStyle=orthogonalEdgeStyle;rounded=0;orthogonalLoop=1;jettySize=auto;html=1;" edge="1" parent="1" source="CVYdMX1Olc9wnZOOx5qh-1" target="CVYdMX1Olc9wnZOOx5qh-7">
          <mxGeometry relative="1" as="geometry" />
        </mxCell>
        <mxCell id="CVYdMX1Olc9wnZOOx5qh-10" value="ack" style="edgeLabel;html=1;align=center;verticalAlign=middle;resizable=0;points=[];" vertex="1" connectable="0" parent="CVYdMX1Olc9wnZOOx5qh-8">
          <mxGeometry y="1" relative="1" as="geometry">
            <mxPoint as="offset" />
          </mxGeometry>
        </mxCell>
        <mxCell id="CVYdMX1Olc9wnZOOx5qh-1" value="check type" style="rounded=0;whiteSpace=wrap;html=1;" vertex="1" parent="1">
          <mxGeometry x="210" y="220" width="120" height="60" as="geometry" />
        </mxCell>
        <mxCell id="CVYdMX1Olc9wnZOOx5qh-3" value="" style="endArrow=classic;html=1;rounded=0;" edge="1" parent="1">
          <mxGeometry width="50" height="50" relative="1" as="geometry">
            <mxPoint x="270" y="150" as="sourcePoint" />
            <mxPoint x="270" y="220" as="targetPoint" />
          </mxGeometry>
        </mxCell>
        <mxCell id="CVYdMX1Olc9wnZOOx5qh-4" value="1. event" style="edgeLabel;html=1;align=center;verticalAlign=middle;resizable=0;points=[];" vertex="1" connectable="0" parent="CVYdMX1Olc9wnZOOx5qh-3">
          <mxGeometry x="-0.2571" relative="1" as="geometry">
            <mxPoint as="offset" />
          </mxGeometry>
        </mxCell>
        <mxCell id="CVYdMX1Olc9wnZOOx5qh-14" value="" style="edgeStyle=orthogonalEdgeStyle;rounded=0;orthogonalLoop=1;jettySize=auto;html=1;exitX=0;exitY=0.5;exitDx=0;exitDy=0;" edge="1" parent="1" source="CVYdMX1Olc9wnZOOx5qh-5" target="CVYdMX1Olc9wnZOOx5qh-13">
          <mxGeometry relative="1" as="geometry">
            <mxPoint x="-269.5" y="359" as="sourcePoint" />
          </mxGeometry>
        </mxCell>
        <mxCell id="CVYdMX1Olc9wnZOOx5qh-16" value="no" style="edgeLabel;html=1;align=center;verticalAlign=middle;resizable=0;points=[];" vertex="1" connectable="0" parent="CVYdMX1Olc9wnZOOx5qh-14">
          <mxGeometry x="-0.0118" y="-2" relative="1" as="geometry">
            <mxPoint y="1" as="offset" />
          </mxGeometry>
        </mxCell>
        <mxCell id="CVYdMX1Olc9wnZOOx5qh-50" value="" style="edgeStyle=orthogonalEdgeStyle;rounded=0;orthogonalLoop=1;jettySize=auto;html=1;" edge="1" parent="1" source="CVYdMX1Olc9wnZOOx5qh-5" target="CVYdMX1Olc9wnZOOx5qh-11">
          <mxGeometry relative="1" as="geometry" />
        </mxCell>
        <mxCell id="CVYdMX1Olc9wnZOOx5qh-51" value="yes" style="edgeLabel;html=1;align=center;verticalAlign=middle;resizable=0;points=[];" vertex="1" connectable="0" parent="CVYdMX1Olc9wnZOOx5qh-50">
          <mxGeometry x="-0.1833" y="-1" relative="1" as="geometry">
            <mxPoint as="offset" />
          </mxGeometry>
        </mxCell>
        <mxCell id="CVYdMX1Olc9wnZOOx5qh-5" value="if relay-chain mode?" style="rounded=0;whiteSpace=wrap;html=1;" vertex="1" parent="1">
          <mxGeometry x="-50" y="329" width="120" height="60" as="geometry" />
        </mxCell>
        <mxCell id="CVYdMX1Olc9wnZOOx5qh-55" value="" style="edgeStyle=orthogonalEdgeStyle;rounded=0;orthogonalLoop=1;jettySize=auto;html=1;exitX=0;exitY=0.5;exitDx=0;exitDy=0;" edge="1" parent="1" source="CVYdMX1Olc9wnZOOx5qh-7" target="CVYdMX1Olc9wnZOOx5qh-54">
          <mxGeometry relative="1" as="geometry" />
        </mxCell>
        <mxCell id="CVYdMX1Olc9wnZOOx5qh-58" value="no" style="edgeLabel;html=1;align=center;verticalAlign=middle;resizable=0;points=[];" vertex="1" connectable="0" parent="CVYdMX1Olc9wnZOOx5qh-55">
          <mxGeometry x="0.2063" y="-2" relative="1" as="geometry">
            <mxPoint as="offset" />
          </mxGeometry>
        </mxCell>
        <mxCell id="CVYdMX1Olc9wnZOOx5qh-57" value="" style="edgeStyle=orthogonalEdgeStyle;rounded=0;orthogonalLoop=1;jettySize=auto;html=1;" edge="1" parent="1" source="CVYdMX1Olc9wnZOOx5qh-7" target="CVYdMX1Olc9wnZOOx5qh-56">
          <mxGeometry relative="1" as="geometry" />
        </mxCell>
        <mxCell id="CVYdMX1Olc9wnZOOx5qh-59" value="yes" style="edgeLabel;html=1;align=center;verticalAlign=middle;resizable=0;points=[];" vertex="1" connectable="0" parent="CVYdMX1Olc9wnZOOx5qh-57">
          <mxGeometry x="0.0462" y="2" relative="1" as="geometry">
            <mxPoint y="1" as="offset" />
          </mxGeometry>
        </mxCell>
        <mxCell id="CVYdMX1Olc9wnZOOx5qh-7" value="if relay-chain mode?" style="whiteSpace=wrap;html=1;rounded=0;" vertex="1" parent="1">
          <mxGeometry x="460" y="330" width="120" height="60" as="geometry" />
        </mxCell>
        <mxCell id="CVYdMX1Olc9wnZOOx5qh-41" value="" style="edgeStyle=orthogonalEdgeStyle;rounded=0;orthogonalLoop=1;jettySize=auto;html=1;" edge="1" parent="1" source="CVYdMX1Olc9wnZOOx5qh-11" target="CVYdMX1Olc9wnZOOx5qh-40">
          <mxGeometry relative="1" as="geometry" />
        </mxCell>
        <mxCell id="CVYdMX1Olc9wnZOOx5qh-42" value="no&lt;br&gt;(2nd relay)" style="edgeLabel;html=1;align=center;verticalAlign=middle;resizable=0;points=[];" vertex="1" connectable="0" parent="CVYdMX1Olc9wnZOOx5qh-41">
          <mxGeometry x="-0.225" y="-1" relative="1" as="geometry">
            <mxPoint as="offset" />
          </mxGeometry>
        </mxCell>
        <mxCell id="CVYdMX1Olc9wnZOOx5qh-52" value="yes&lt;br&gt;(1st relay)" style="edgeStyle=orthogonalEdgeStyle;rounded=0;orthogonalLoop=1;jettySize=auto;html=1;exitX=0;exitY=0.5;exitDx=0;exitDy=0;entryX=1;entryY=0.5;entryDx=0;entryDy=0;" edge="1" parent="1" source="CVYdMX1Olc9wnZOOx5qh-11" target="CVYdMX1Olc9wnZOOx5qh-13">
          <mxGeometry relative="1" as="geometry" />
        </mxCell>
        <mxCell id="CVYdMX1Olc9wnZOOx5qh-11" value="if relay to relay-chain(teleport)?" style="rounded=0;whiteSpace=wrap;html=1;" vertex="1" parent="1">
          <mxGeometry x="-50" y="449" width="120" height="60" as="geometry" />
        </mxCell>
        <mxCell id="CVYdMX1Olc9wnZOOx5qh-34" value="" style="edgeStyle=orthogonalEdgeStyle;rounded=0;orthogonalLoop=1;jettySize=auto;html=1;" edge="1" parent="1" source="CVYdMX1Olc9wnZOOx5qh-13" target="CVYdMX1Olc9wnZOOx5qh-33">
          <mxGeometry relative="1" as="geometry" />
        </mxCell>
        <mxCell id="CVYdMX1Olc9wnZOOx5qh-35" value="yes" style="edgeLabel;html=1;align=center;verticalAlign=middle;resizable=0;points=[];" vertex="1" connectable="0" parent="CVYdMX1Olc9wnZOOx5qh-34">
          <mxGeometry x="0.1929" y="1" relative="1" as="geometry">
            <mxPoint x="1" as="offset" />
          </mxGeometry>
        </mxCell>
        <mxCell id="CVYdMX1Olc9wnZOOx5qh-49" style="edgeStyle=orthogonalEdgeStyle;rounded=0;orthogonalLoop=1;jettySize=auto;html=1;entryX=0.5;entryY=0;entryDx=0;entryDy=0;" edge="1" parent="1" source="CVYdMX1Olc9wnZOOx5qh-13" target="CVYdMX1Olc9wnZOOx5qh-19">
          <mxGeometry relative="1" as="geometry" />
        </mxCell>
        <mxCell id="CVYdMX1Olc9wnZOOx5qh-53" value="no" style="edgeLabel;html=1;align=center;verticalAlign=middle;resizable=0;points=[];" vertex="1" connectable="0" parent="CVYdMX1Olc9wnZOOx5qh-49">
          <mxGeometry x="0.2212" y="3" relative="1" as="geometry">
            <mxPoint as="offset" />
          </mxGeometry>
        </mxCell>
        <mxCell id="CVYdMX1Olc9wnZOOx5qh-13" value="if free to relay?" style="rounded=0;whiteSpace=wrap;html=1;" vertex="1" parent="1">
          <mxGeometry x="-250" y="449" width="120" height="60" as="geometry" />
        </mxCell>
        <mxCell id="CVYdMX1Olc9wnZOOx5qh-28" value="" style="edgeStyle=orthogonalEdgeStyle;rounded=0;orthogonalLoop=1;jettySize=auto;html=1;" edge="1" parent="1" source="CVYdMX1Olc9wnZOOx5qh-19" target="CVYdMX1Olc9wnZOOx5qh-27">
          <mxGeometry relative="1" as="geometry" />
        </mxCell>
        <mxCell id="CVYdMX1Olc9wnZOOx5qh-31" value="yes" style="edgeLabel;html=1;align=center;verticalAlign=middle;resizable=0;points=[];" vertex="1" connectable="0" parent="CVYdMX1Olc9wnZOOx5qh-28">
          <mxGeometry x="0.0083" y="1" relative="1" as="geometry">
            <mxPoint as="offset" />
          </mxGeometry>
        </mxCell>
        <mxCell id="CVYdMX1Olc9wnZOOx5qh-30" value="" style="edgeStyle=orthogonalEdgeStyle;rounded=0;orthogonalLoop=1;jettySize=auto;html=1;" edge="1" parent="1" source="CVYdMX1Olc9wnZOOx5qh-19" target="CVYdMX1Olc9wnZOOx5qh-29">
          <mxGeometry relative="1" as="geometry" />
        </mxCell>
        <mxCell id="CVYdMX1Olc9wnZOOx5qh-32" value="no" style="edgeLabel;html=1;align=center;verticalAlign=middle;resizable=0;points=[];" vertex="1" connectable="0" parent="CVYdMX1Olc9wnZOOx5qh-30">
          <mxGeometry x="0.125" y="-4" relative="1" as="geometry">
            <mxPoint as="offset" />
          </mxGeometry>
        </mxCell>
        <mxCell id="CVYdMX1Olc9wnZOOx5qh-19" value="if user&#39;s fee is enough to cover" style="rounded=0;whiteSpace=wrap;html=1;" vertex="1" parent="1">
          <mxGeometry x="-330.5" y="589" width="120" height="60" as="geometry" />
        </mxCell>
        <mxCell id="CVYdMX1Olc9wnZOOx5qh-27" value="relay" style="ellipse;whiteSpace=wrap;html=1;rounded=0;" vertex="1" parent="1">
          <mxGeometry x="-380" y="709" width="89.5" height="50" as="geometry" />
        </mxCell>
        <mxCell id="CVYdMX1Olc9wnZOOx5qh-29" value="reject and wait for adding fee" style="ellipse;whiteSpace=wrap;html=1;rounded=0;" vertex="1" parent="1">
          <mxGeometry x="-250.5" y="709" width="100.5" height="50" as="geometry" />
        </mxCell>
        <mxCell id="CVYdMX1Olc9wnZOOx5qh-33" value="relay" style="ellipse;whiteSpace=wrap;html=1;rounded=0;" vertex="1" parent="1">
          <mxGeometry x="-150" y="589" width="70" height="50" as="geometry" />
        </mxCell>
        <mxCell id="CVYdMX1Olc9wnZOOx5qh-44" value="" style="edgeStyle=orthogonalEdgeStyle;rounded=0;orthogonalLoop=1;jettySize=auto;html=1;" edge="1" parent="1" source="CVYdMX1Olc9wnZOOx5qh-40" target="CVYdMX1Olc9wnZOOx5qh-43">
          <mxGeometry relative="1" as="geometry" />
        </mxCell>
        <mxCell id="CVYdMX1Olc9wnZOOx5qh-45" value="no" style="edgeLabel;html=1;align=center;verticalAlign=middle;resizable=0;points=[];" vertex="1" connectable="0" parent="CVYdMX1Olc9wnZOOx5qh-44">
          <mxGeometry x="-0.325" y="-1" relative="1" as="geometry">
            <mxPoint as="offset" />
          </mxGeometry>
        </mxCell>
        <mxCell id="CVYdMX1Olc9wnZOOx5qh-47" value="" style="edgeStyle=orthogonalEdgeStyle;rounded=0;orthogonalLoop=1;jettySize=auto;html=1;" edge="1" parent="1" source="CVYdMX1Olc9wnZOOx5qh-40" target="CVYdMX1Olc9wnZOOx5qh-46">
          <mxGeometry relative="1" as="geometry" />
        </mxCell>
        <mxCell id="CVYdMX1Olc9wnZOOx5qh-48" value="yes" style="edgeLabel;html=1;align=center;verticalAlign=middle;resizable=0;points=[];" vertex="1" connectable="0" parent="CVYdMX1Olc9wnZOOx5qh-47">
          <mxGeometry relative="1" as="geometry">
            <mxPoint as="offset" />
          </mxGeometry>
        </mxCell>
        <mxCell id="CVYdMX1Olc9wnZOOx5qh-40" value="if first packet relayer is from our group?" style="rounded=0;whiteSpace=wrap;html=1;" vertex="1" parent="1">
          <mxGeometry x="-50" y="584" width="120" height="60" as="geometry" />
        </mxCell>
        <mxCell id="CVYdMX1Olc9wnZOOx5qh-43" value="reject and delete" style="ellipse;whiteSpace=wrap;html=1;rounded=0;" vertex="1" parent="1">
          <mxGeometry x="40" y="709" width="80" height="50" as="geometry" />
        </mxCell>
        <mxCell id="CVYdMX1Olc9wnZOOx5qh-46" value="relay" style="ellipse;whiteSpace=wrap;html=1;rounded=0;" vertex="1" parent="1">
          <mxGeometry x="-100" y="709" width="80" height="50" as="geometry" />
        </mxCell>
        <mxCell id="CVYdMX1Olc9wnZOOx5qh-61" value="" style="edgeStyle=orthogonalEdgeStyle;rounded=0;orthogonalLoop=1;jettySize=auto;html=1;" edge="1" parent="1" source="CVYdMX1Olc9wnZOOx5qh-54" target="CVYdMX1Olc9wnZOOx5qh-60">
          <mxGeometry relative="1" as="geometry" />
        </mxCell>
        <mxCell id="CVYdMX1Olc9wnZOOx5qh-62" value="yes" style="edgeLabel;html=1;align=center;verticalAlign=middle;resizable=0;points=[];" vertex="1" connectable="0" parent="CVYdMX1Olc9wnZOOx5qh-61">
          <mxGeometry x="-0.1342" y="2" relative="1" as="geometry">
            <mxPoint x="1" as="offset" />
          </mxGeometry>
        </mxCell>
        <mxCell id="CVYdMX1Olc9wnZOOx5qh-87" value="" style="edgeStyle=orthogonalEdgeStyle;rounded=0;orthogonalLoop=1;jettySize=auto;html=1;" edge="1" parent="1" source="CVYdMX1Olc9wnZOOx5qh-54" target="CVYdMX1Olc9wnZOOx5qh-86">
          <mxGeometry relative="1" as="geometry" />
        </mxCell>
        <mxCell id="CVYdMX1Olc9wnZOOx5qh-88" value="no" style="edgeLabel;html=1;align=center;verticalAlign=middle;resizable=0;points=[];" vertex="1" connectable="0" parent="CVYdMX1Olc9wnZOOx5qh-87">
          <mxGeometry x="-0.0826" y="-4" relative="1" as="geometry">
            <mxPoint x="1" as="offset" />
          </mxGeometry>
        </mxCell>
        <mxCell id="CVYdMX1Olc9wnZOOx5qh-54" value="if the packet was relayed free" style="whiteSpace=wrap;html=1;rounded=0;" vertex="1" parent="1">
          <mxGeometry x="306" y="430" width="120" height="60" as="geometry" />
        </mxCell>
        <mxCell id="CVYdMX1Olc9wnZOOx5qh-96" value="" style="edgeStyle=orthogonalEdgeStyle;rounded=0;orthogonalLoop=1;jettySize=auto;html=1;" edge="1" parent="1" source="CVYdMX1Olc9wnZOOx5qh-56" target="CVYdMX1Olc9wnZOOx5qh-95">
          <mxGeometry relative="1" as="geometry" />
        </mxCell>
        <mxCell id="CVYdMX1Olc9wnZOOx5qh-97" value="yes&lt;br&gt;(1st&amp;nbsp;ack)" style="edgeLabel;html=1;align=center;verticalAlign=middle;resizable=0;points=[];" vertex="1" connectable="0" parent="CVYdMX1Olc9wnZOOx5qh-96">
          <mxGeometry x="-0.3375" y="-3" relative="1" as="geometry">
            <mxPoint as="offset" />
          </mxGeometry>
        </mxCell>
        <mxCell id="CVYdMX1Olc9wnZOOx5qh-104" value="" style="edgeStyle=orthogonalEdgeStyle;rounded=0;orthogonalLoop=1;jettySize=auto;html=1;" edge="1" parent="1" source="CVYdMX1Olc9wnZOOx5qh-56" target="CVYdMX1Olc9wnZOOx5qh-103">
          <mxGeometry relative="1" as="geometry" />
        </mxCell>
        <mxCell id="CVYdMX1Olc9wnZOOx5qh-105" value="no&lt;br&gt;(2nd ack)" style="edgeLabel;html=1;align=center;verticalAlign=middle;resizable=0;points=[];" vertex="1" connectable="0" parent="CVYdMX1Olc9wnZOOx5qh-104">
          <mxGeometry x="-0.2563" relative="1" as="geometry">
            <mxPoint y="1" as="offset" />
          </mxGeometry>
        </mxCell>
        <mxCell id="CVYdMX1Olc9wnZOOx5qh-56" value="if relay to relay-chain(teleport)?" style="whiteSpace=wrap;html=1;rounded=0;" vertex="1" parent="1">
          <mxGeometry x="620" y="430" width="120" height="60" as="geometry" />
        </mxCell>
        <mxCell id="CVYdMX1Olc9wnZOOx5qh-66" value="" style="edgeStyle=orthogonalEdgeStyle;rounded=0;orthogonalLoop=1;jettySize=auto;html=1;" edge="1" parent="1" source="CVYdMX1Olc9wnZOOx5qh-60" target="CVYdMX1Olc9wnZOOx5qh-65">
          <mxGeometry relative="1" as="geometry" />
        </mxCell>
        <mxCell id="CVYdMX1Olc9wnZOOx5qh-67" value="no" style="edgeLabel;html=1;align=center;verticalAlign=middle;resizable=0;points=[];" vertex="1" connectable="0" parent="CVYdMX1Olc9wnZOOx5qh-66">
          <mxGeometry x="0.05" relative="1" as="geometry">
            <mxPoint as="offset" />
          </mxGeometry>
        </mxCell>
        <mxCell id="CVYdMX1Olc9wnZOOx5qh-69" value="" style="edgeStyle=orthogonalEdgeStyle;rounded=0;orthogonalLoop=1;jettySize=auto;html=1;" edge="1" parent="1" source="CVYdMX1Olc9wnZOOx5qh-60" target="CVYdMX1Olc9wnZOOx5qh-68">
          <mxGeometry relative="1" as="geometry" />
        </mxCell>
        <mxCell id="CVYdMX1Olc9wnZOOx5qh-70" value="yes" style="edgeLabel;html=1;align=center;verticalAlign=middle;resizable=0;points=[];" vertex="1" connectable="0" parent="CVYdMX1Olc9wnZOOx5qh-69">
          <mxGeometry x="-0.0809" y="1" relative="1" as="geometry">
            <mxPoint y="1" as="offset" />
          </mxGeometry>
        </mxCell>
        <mxCell id="CVYdMX1Olc9wnZOOx5qh-60" value="if ack error?" style="whiteSpace=wrap;html=1;rounded=0;" vertex="1" parent="1">
          <mxGeometry x="206" y="570.1" width="120" height="60" as="geometry" />
        </mxCell>
        <mxCell id="CVYdMX1Olc9wnZOOx5qh-65" value="reject and delete" style="ellipse;whiteSpace=wrap;html=1;rounded=0;" vertex="1" parent="1">
          <mxGeometry x="290" y="705.1" width="80" height="50" as="geometry" />
        </mxCell>
        <mxCell id="CVYdMX1Olc9wnZOOx5qh-72" value="" style="edgeStyle=orthogonalEdgeStyle;rounded=0;orthogonalLoop=1;jettySize=auto;html=1;" edge="1" parent="1" source="CVYdMX1Olc9wnZOOx5qh-68" target="CVYdMX1Olc9wnZOOx5qh-71">
          <mxGeometry relative="1" as="geometry" />
        </mxCell>
        <mxCell id="CVYdMX1Olc9wnZOOx5qh-73" value="no" style="edgeLabel;html=1;align=center;verticalAlign=middle;resizable=0;points=[];" vertex="1" connectable="0" parent="CVYdMX1Olc9wnZOOx5qh-72">
          <mxGeometry x="-0.0769" y="1" relative="1" as="geometry">
            <mxPoint as="offset" />
          </mxGeometry>
        </mxCell>
        <mxCell id="CVYdMX1Olc9wnZOOx5qh-77" value="" style="edgeStyle=orthogonalEdgeStyle;rounded=0;orthogonalLoop=1;jettySize=auto;html=1;" edge="1" parent="1" source="CVYdMX1Olc9wnZOOx5qh-68" target="CVYdMX1Olc9wnZOOx5qh-76">
          <mxGeometry relative="1" as="geometry" />
        </mxCell>
        <mxCell id="CVYdMX1Olc9wnZOOx5qh-78" value="yes" style="edgeLabel;html=1;align=center;verticalAlign=middle;resizable=0;points=[];" vertex="1" connectable="0" parent="CVYdMX1Olc9wnZOOx5qh-77">
          <mxGeometry x="0.0148" y="2" relative="1" as="geometry">
            <mxPoint x="1" as="offset" />
          </mxGeometry>
        </mxCell>
        <mxCell id="CVYdMX1Olc9wnZOOx5qh-68" value="if the packet relayer is from our group?" style="whiteSpace=wrap;html=1;rounded=0;" vertex="1" parent="1">
          <mxGeometry x="150" y="705.1" width="120" height="60" as="geometry" />
        </mxCell>
        <mxCell id="CVYdMX1Olc9wnZOOx5qh-71" value="reject and delete" style="ellipse;whiteSpace=wrap;html=1;rounded=0;" vertex="1" parent="1">
          <mxGeometry x="246" y="810.1" width="80" height="60" as="geometry" />
        </mxCell>
        <mxCell id="CVYdMX1Olc9wnZOOx5qh-80" value="" style="edgeStyle=orthogonalEdgeStyle;rounded=0;orthogonalLoop=1;jettySize=auto;html=1;" edge="1" parent="1" source="CVYdMX1Olc9wnZOOx5qh-76" target="CVYdMX1Olc9wnZOOx5qh-79">
          <mxGeometry relative="1" as="geometry" />
        </mxCell>
        <mxCell id="CVYdMX1Olc9wnZOOx5qh-81" value="no" style="edgeLabel;html=1;align=center;verticalAlign=middle;resizable=0;points=[];" vertex="1" connectable="0" parent="CVYdMX1Olc9wnZOOx5qh-80">
          <mxGeometry x="-0.2759" y="3" relative="1" as="geometry">
            <mxPoint as="offset" />
          </mxGeometry>
        </mxCell>
        <mxCell id="CVYdMX1Olc9wnZOOx5qh-83" value="" style="edgeStyle=orthogonalEdgeStyle;rounded=0;orthogonalLoop=1;jettySize=auto;html=1;" edge="1" parent="1" source="CVYdMX1Olc9wnZOOx5qh-76" target="CVYdMX1Olc9wnZOOx5qh-82">
          <mxGeometry relative="1" as="geometry" />
        </mxCell>
        <mxCell id="CVYdMX1Olc9wnZOOx5qh-84" value="yes" style="edgeLabel;html=1;align=center;verticalAlign=middle;resizable=0;points=[];" vertex="1" connectable="0" parent="CVYdMX1Olc9wnZOOx5qh-83">
          <mxGeometry x="-0.016" y="1" relative="1" as="geometry">
            <mxPoint y="1" as="offset" />
          </mxGeometry>
        </mxCell>
        <mxCell id="CVYdMX1Olc9wnZOOx5qh-76" value="if user&#39;s fee is enough to relay ack" style="whiteSpace=wrap;html=1;rounded=0;" vertex="1" parent="1">
          <mxGeometry x="70" y="810.1" width="120" height="60" as="geometry" />
        </mxCell>
        <mxCell id="CVYdMX1Olc9wnZOOx5qh-79" value="reject and wait for adding fee" style="ellipse;whiteSpace=wrap;html=1;rounded=0;" vertex="1" parent="1">
          <mxGeometry x="30" y="915.1" width="100" height="60" as="geometry" />
        </mxCell>
        <mxCell id="CVYdMX1Olc9wnZOOx5qh-82" value="relay" style="ellipse;whiteSpace=wrap;html=1;rounded=0;" vertex="1" parent="1">
          <mxGeometry x="150" y="915.1" width="70" height="51" as="geometry" />
        </mxCell>
        <mxCell id="CVYdMX1Olc9wnZOOx5qh-90" value="" style="edgeStyle=orthogonalEdgeStyle;rounded=0;orthogonalLoop=1;jettySize=auto;html=1;exitX=0.5;exitY=1;exitDx=0;exitDy=0;" edge="1" parent="1" source="CVYdMX1Olc9wnZOOx5qh-86">
          <mxGeometry relative="1" as="geometry">
            <mxPoint x="530" y="700.1" as="targetPoint" />
          </mxGeometry>
        </mxCell>
        <mxCell id="CVYdMX1Olc9wnZOOx5qh-91" value="no" style="edgeLabel;html=1;align=center;verticalAlign=middle;resizable=0;points=[];" vertex="1" connectable="0" parent="CVYdMX1Olc9wnZOOx5qh-90">
          <mxGeometry x="-0.0194" y="1" relative="1" as="geometry">
            <mxPoint as="offset" />
          </mxGeometry>
        </mxCell>
        <mxCell id="CVYdMX1Olc9wnZOOx5qh-93" value="" style="edgeStyle=orthogonalEdgeStyle;rounded=0;orthogonalLoop=1;jettySize=auto;html=1;" edge="1" parent="1" source="CVYdMX1Olc9wnZOOx5qh-86" target="CVYdMX1Olc9wnZOOx5qh-92">
          <mxGeometry relative="1" as="geometry" />
        </mxCell>
        <mxCell id="CVYdMX1Olc9wnZOOx5qh-94" value="yes" style="edgeLabel;html=1;align=center;verticalAlign=middle;resizable=0;points=[];" vertex="1" connectable="0" parent="CVYdMX1Olc9wnZOOx5qh-93">
          <mxGeometry x="-0.0933" y="4" relative="1" as="geometry">
            <mxPoint as="offset" />
          </mxGeometry>
        </mxCell>
        <mxCell id="CVYdMX1Olc9wnZOOx5qh-86" value="if the packet relayer is from our group?" style="whiteSpace=wrap;html=1;rounded=0;" vertex="1" parent="1">
          <mxGeometry x="416" y="570.1" width="120" height="60" as="geometry" />
        </mxCell>
        <mxCell id="CVYdMX1Olc9wnZOOx5qh-89" value="reject and delete" style="ellipse;whiteSpace=wrap;html=1;rounded=0;" vertex="1" parent="1">
          <mxGeometry x="490" y="700" width="80" height="46" as="geometry" />
        </mxCell>
        <mxCell id="CVYdMX1Olc9wnZOOx5qh-92" value="relay" style="ellipse;whiteSpace=wrap;html=1;rounded=0;" vertex="1" parent="1">
          <mxGeometry x="380" y="700.1" width="80" height="46" as="geometry" />
        </mxCell>
        <mxCell id="CVYdMX1Olc9wnZOOx5qh-99" value="yes" style="edgeStyle=orthogonalEdgeStyle;rounded=0;orthogonalLoop=1;jettySize=auto;html=1;" edge="1" parent="1" source="CVYdMX1Olc9wnZOOx5qh-95" target="CVYdMX1Olc9wnZOOx5qh-98">
          <mxGeometry relative="1" as="geometry" />
        </mxCell>
        <mxCell id="CVYdMX1Olc9wnZOOx5qh-101" value="" style="edgeStyle=orthogonalEdgeStyle;rounded=0;orthogonalLoop=1;jettySize=auto;html=1;" edge="1" parent="1" source="CVYdMX1Olc9wnZOOx5qh-95" target="CVYdMX1Olc9wnZOOx5qh-100">
          <mxGeometry relative="1" as="geometry" />
        </mxCell>
        <mxCell id="CVYdMX1Olc9wnZOOx5qh-102" value="no" style="edgeLabel;html=1;align=center;verticalAlign=middle;resizable=0;points=[];" vertex="1" connectable="0" parent="CVYdMX1Olc9wnZOOx5qh-101">
          <mxGeometry x="-0.0444" y="1" relative="1" as="geometry">
            <mxPoint y="1" as="offset" />
          </mxGeometry>
        </mxCell>
        <mxCell id="CVYdMX1Olc9wnZOOx5qh-95" value="if the related packet relayer is from our group?" style="whiteSpace=wrap;html=1;rounded=0;" vertex="1" parent="1">
          <mxGeometry x="620" y="550" width="120" height="60" as="geometry" />
        </mxCell>
        <mxCell id="CVYdMX1Olc9wnZOOx5qh-98" value="relay" style="ellipse;whiteSpace=wrap;html=1;rounded=0;" vertex="1" parent="1">
          <mxGeometry x="690" y="663" width="70" height="41" as="geometry" />
        </mxCell>
        <mxCell id="CVYdMX1Olc9wnZOOx5qh-100" value="reject and delete" style="ellipse;whiteSpace=wrap;html=1;rounded=0;" vertex="1" parent="1">
          <mxGeometry x="590" y="663" width="80" height="46" as="geometry" />
        </mxCell>
        <mxCell id="CVYdMX1Olc9wnZOOx5qh-109" value="" style="edgeStyle=orthogonalEdgeStyle;rounded=0;orthogonalLoop=1;jettySize=auto;html=1;" edge="1" parent="1" source="CVYdMX1Olc9wnZOOx5qh-103" target="CVYdMX1Olc9wnZOOx5qh-108">
          <mxGeometry relative="1" as="geometry" />
        </mxCell>
        <mxCell id="CVYdMX1Olc9wnZOOx5qh-112" value="no" style="edgeLabel;html=1;align=center;verticalAlign=middle;resizable=0;points=[];" vertex="1" connectable="0" parent="CVYdMX1Olc9wnZOOx5qh-109">
          <mxGeometry x="0.0267" y="-3" relative="1" as="geometry">
            <mxPoint as="offset" />
          </mxGeometry>
        </mxCell>
        <mxCell id="CVYdMX1Olc9wnZOOx5qh-111" value="" style="edgeStyle=orthogonalEdgeStyle;rounded=0;orthogonalLoop=1;jettySize=auto;html=1;" edge="1" parent="1" source="CVYdMX1Olc9wnZOOx5qh-103" target="CVYdMX1Olc9wnZOOx5qh-110">
          <mxGeometry relative="1" as="geometry" />
        </mxCell>
        <mxCell id="CVYdMX1Olc9wnZOOx5qh-113" value="yes" style="edgeLabel;html=1;align=center;verticalAlign=middle;resizable=0;points=[];" vertex="1" connectable="0" parent="CVYdMX1Olc9wnZOOx5qh-111">
          <mxGeometry x="0.12" y="-1" relative="1" as="geometry">
            <mxPoint as="offset" />
          </mxGeometry>
        </mxCell>
        <mxCell id="CVYdMX1Olc9wnZOOx5qh-103" value="if the 1st ack relayer is from our group?" style="whiteSpace=wrap;html=1;rounded=0;" vertex="1" parent="1">
          <mxGeometry x="820" y="549.6" width="120" height="60" as="geometry" />
        </mxCell>
        <mxCell id="CVYdMX1Olc9wnZOOx5qh-108" value="reject and delete" style="ellipse;whiteSpace=wrap;html=1;rounded=0;" vertex="1" parent="1">
          <mxGeometry x="770" y="689.6" width="90" height="50" as="geometry" />
        </mxCell>
        <mxCell id="CVYdMX1Olc9wnZOOx5qh-110" value="relay" style="ellipse;whiteSpace=wrap;html=1;rounded=0;" vertex="1" parent="1">
          <mxGeometry x="900" y="689.6" width="100" height="50" as="geometry" />
        </mxCell>
        <mxCell id="CVYdMX1Olc9wnZOOx5qh-114" value="Block Chain" style="ellipse;shape=cloud;whiteSpace=wrap;html=1;" vertex="1" parent="1">
          <mxGeometry x="210" y="70" width="120" height="80" as="geometry" />
        </mxCell>
      </root>
    </mxGraphModel>
  </diagram>
</mxfile>
